<?xml version="1.0" encoding="UTF-8"?>
<svg xmlns="http://www.w3.org/2000/svg" width="294" height="159" viewBox="0 0 294 159" fill="none">
  <path d="M0 78H150L124 153H0V78Z" fill="black"></path>
  <path d="M38.4688 123.875H19.9062L13.5312 140H10L28.375 94.125H30.4062L48.4062 140H44.8125L38.4688 123.875ZM21.0625 121H37.4062L31.1875 104.531C30.6667 103.24 30.0417 101.448 29.3125 99.1562C28.75 101.156 28.1354 102.969 27.4688 104.594L21.0625 121ZM88.5 94.3125V123.875C88.5 129.125 86.9792 133.229 83.9375 136.188C80.8958 139.146 76.6562 140.625 71.2188 140.625C65.9271 140.625 61.7917 139.146 58.8125 136.188C55.8542 133.208 54.375 129.062 54.375 123.75V94.3125H57.5938V123.875C57.5938 128.271 58.8125 131.698 61.25 134.156C63.6875 136.594 67.1354 137.812 71.5938 137.812C75.9479 137.812 79.3229 136.615 81.7188 134.219C84.1146 131.802 85.3125 128.458 85.3125 124.188V94.3125H88.5ZM112.875 140H109.656V97.3125H94.8125V94.3125H127.719V97.3125H112.875V140Z" fill="white"></path>
  <path d="M162 72H294V147H136L162 72Z" fill="black"></path>
  <path d="M189.719 134L186.406 123.125H169.75L166.438 134H156L172.125 88.125H183.969L200.156 134H189.719ZM184.094 115C181.031 105.146 179.302 99.5729 178.906 98.2812C178.531 96.9896 178.26 95.9688 178.094 95.2188C177.406 97.8854 175.438 104.479 172.188 115H184.094ZM215.625 108.594H218.75C221.812 108.594 224.073 108.083 225.531 107.062C226.99 106.042 227.719 104.438 227.719 102.25C227.719 100.083 226.969 98.5417 225.469 97.625C223.99 96.7083 221.688 96.25 218.562 96.25H215.625V108.594ZM215.625 116.469V134H205.938V88.3125H219.25C225.458 88.3125 230.052 89.4479 233.031 91.7188C236.01 93.9688 237.5 97.3958 237.5 102C237.5 104.688 236.76 107.083 235.281 109.188C233.802 111.271 231.708 112.906 229 114.094C235.875 124.365 240.354 131 242.438 134H231.688L220.781 116.469H215.625ZM284.938 134H273.938L261.969 114.75L257.875 117.688V134H248.188V88.3125H257.875V109.219L261.688 103.844L274.062 88.3125H284.812L268.875 108.531L284.938 134Z" fill="white"></path>
  <path d="M0 75.5C0 74.1193 1.11929 73 2.5 73C3.88071 73 5 74.1193 5 75.5V78H0V75.5Z" fill="#EE6165"></path>
  <path d="M10.3571 67.5C10.3571 66.1193 11.4764 65 12.8571 65C14.2379 65 15.3571 66.1193 15.3571 67.5V78H10.3571V67.5Z" fill="#F17060"></path>
  <path d="M20.7143 58.5C20.7143 57.1193 21.8336 56 23.2143 56C24.595 56 25.7143 57.1193 25.7143 58.5V78H20.7143V58.5Z" fill="#F88D57"></path>
  <path d="M31.0714 52.5C31.0714 51.1193 32.1907 50 33.5714 50C34.9521 50 36.0714 51.1193 36.0714 52.5V78H31.0714V52.5Z" fill="#FC9B52"></path>
  <path d="M41.4286 47.5C41.4286 46.1193 42.5479 45 43.9286 45C45.3093 45 46.4286 46.1193 46.4286 47.5V78H41.4286V47.5Z" fill="#FFAA4D"></path>
  <path d="M51.7857 44.5C51.7857 43.1193 52.905 42 54.2857 42C55.6664 42 56.7857 43.1193 56.7857 44.5V78H51.7857V44.5Z" fill="#FFB73E"></path>
  <path d="M62.1429 42.5C62.1429 41.1193 63.2621 40 64.6429 40C66.0236 40 67.1429 41.1193 67.1429 42.5V78H62.1429V42.5Z" fill="#FFC32E"></path>
  <path d="M72.5 42.5C72.5 41.1193 73.6193 40 75 40C76.3807 40 77.5 41.1193 77.5 42.5V78H72.5V42.5Z" fill="#FFD01F"></path>
  <path d="M82.8571 44.5C82.8571 43.1193 83.9764 42 85.3571 42V42C86.7379 42 87.8571 43.1193 87.8571 44.5V78H82.8571V44.5Z" fill="#FFDC0F"></path>
  <path d="M93.2143 48.5C93.2143 47.1193 94.3336 46 95.7143 46V46C97.095 46 98.2143 47.1193 98.2143 48.5V78H93.2143V48.5Z" fill="#FFE900"></path>
  <path d="M103.571 52.5C103.571 51.1193 104.691 50 106.071 50V50C107.452 50 108.571 51.1193 108.571 52.5V78H103.571V52.5Z" fill="#DAE509"></path>
  <path d="M113.929 56.5C113.929 55.1193 115.048 54 116.429 54V54C117.809 54 118.929 55.1193 118.929 56.5V78H113.929V56.5Z" fill="#B4E112"></path>
  <path d="M124.286 60.5C124.286 59.1193 125.405 58 126.786 58V58C128.166 58 129.286 59.1193 129.286 60.5V78H124.286V60.5Z" fill="#8FDE1A"></path>
  <path d="M134.643 65.5C134.643 64.1193 135.762 63 137.143 63V63C138.524 63 139.643 64.1193 139.643 65.5V78H134.643V65.5Z" fill="#69DA23"></path>
  <path d="M145 69.5C145 68.1193 146.119 67 147.5 67V67C148.881 67 150 68.1193 150 69.5V78H145V69.5Z" fill="#44D62C"></path>
  <path d="M162 68.5C162 67.1193 163.119 66 164.5 66C165.881 66 167 67.1193 167 68.5V72H162V68.5Z" fill="#1BB28D"></path>
  <path d="M172.583 65.5C172.583 64.1193 173.703 63 175.083 63C176.464 63 177.583 64.1193 177.583 65.5V72H172.583V65.5Z" fill="#14AC9D"></path>
  <path d="M183.167 61.5C183.167 60.1193 184.286 59 185.667 59C187.047 59 188.167 60.1193 188.167 61.5V72H183.167V61.5Z" fill="#0EA6AE"></path>
  <path d="M193.75 56.5C193.75 55.1193 194.869 54 196.25 54C197.631 54 198.75 55.1193 198.75 56.5V72H193.75V56.5Z" fill="#009ACE"></path>
  <path d="M204.333 51.5C204.333 50.1193 205.453 49 206.833 49C208.214 49 209.333 50.1193 209.333 51.5V72H204.333V51.5Z" fill="#0E95CF"></path>
  <path d="M214.917 46.5C214.917 45.1193 216.036 44 217.417 44C218.797 44 219.917 45.1193 219.917 46.5V72H214.917V46.5Z" fill="#1C90CF"></path>
  <path d="M225.5 38.5C225.5 37.1193 226.619 36 228 36C229.381 36 230.5 37.1193 230.5 38.5V72H225.5V38.5Z" fill="#298BD0"></path>
  <path d="M236.083 28.5C236.083 27.1193 237.203 26 238.583 26C239.964 26 241.083 27.1193 241.083 28.5V72H236.083V28.5Z" fill="#3786D0"></path>
  <path d="M246.667 21.5C246.667 20.1193 247.786 19 249.167 19C250.547 19 251.667 20.1193 251.667 21.5V72H246.667V21.5Z" fill="#4582D1"></path>
  <path d="M257.25 14.5C257.25 13.1193 258.369 12 259.75 12C261.131 12 262.25 13.1193 262.25 14.5V72H257.25V14.5Z" fill="#537DD2"></path>
  <path d="M267.833 12.5C267.833 11.1193 268.953 10 270.333 10C271.714 10 272.833 11.1193 272.833 12.5V72H267.833V12.5Z" fill="#6178D2"></path>
  <path d="M278.417 12.5C278.417 11.1193 279.536 10 280.917 10C282.297 10 283.417 11.1193 283.417 12.5V72H278.417V12.5Z" fill="#6E73D3"></path>
  <path d="M289 16.5C289 15.1193 290.119 14 291.5 14C292.881 14 294 15.1193 294 16.5V72H289V16.5Z" fill="#7C6ED3"></path>
</svg>
